<svg xmlns="http://www.w3.org/2000/svg" xmlns:xlink="http://www.w3.org/1999/xlink" width="365" zoomAndPan="magnify" viewBox="0 0 273.75 281.25" height="375" preserveAspectRatio="xMidYMid meet" version="1.0"><defs><g/><clipPath id="6a5a606de4"><path d="M 9.230469 130.628906 L 268.960938 130.628906 L 268.960938 183.519531 L 9.230469 183.519531 Z M 9.230469 130.628906 " clip-rule="nonzero"/></clipPath><clipPath id="833ded37f4"><path d="M 216 132 L 273.261719 132 L 273.261719 187 L 216 187 Z M 216 132 " clip-rule="nonzero"/></clipPath></defs><g fill="#f85a40" fill-opacity="1"><g transform="translate(24.836007, 230.269567)"><g><path d="M 8.171875 0 L 8.171875 -2.34375 L 19.625 -2.34375 C 24.925781 -2.34375 29.09375 -3.585938 32.125 -6.078125 C 35.164062 -8.566406 36.6875 -12.695312 36.6875 -18.46875 L 36.6875 -149.09375 C 36.6875 -154.539062 35.164062 -158.472656 32.125 -160.890625 C 29.09375 -163.304688 24.925781 -164.515625 19.625 -164.515625 L 8.171875 -164.515625 L 8.171875 -166.859375 L 60.296875 -166.859375 L 116.609375 -29.90625 L 164.984375 -166.859375 L 211.953125 -166.859375 L 211.953125 -164.515625 L 207.046875 -164.515625 C 201.441406 -164.515625 197.15625 -163.265625 194.1875 -160.765625 C 191.226562 -158.273438 189.75 -154.070312 189.75 -148.15625 L 189.75 -18.6875 C 189.75 -12.769531 191.226562 -8.566406 194.1875 -6.078125 C 197.15625 -3.585938 201.441406 -2.34375 207.046875 -2.34375 L 211.953125 -2.34375 L 211.953125 0 L 146.28125 0 L 146.28125 -2.34375 L 147.453125 -2.34375 C 152.441406 -2.34375 156.375 -3.546875 159.25 -5.953125 C 162.132812 -8.367188 163.578125 -12.460938 163.578125 -18.234375 L 163.578125 -155.640625 L 108.890625 0 L 101.65625 0 L 39.03125 -153.0625 L 39.03125 -18.6875 C 39.03125 -12.769531 40.585938 -8.566406 43.703125 -6.078125 C 46.816406 -3.585938 51.488281 -2.34375 57.71875 -2.34375 L 63.328125 -2.34375 L 63.328125 0 Z M 8.171875 0 "/></g></g></g><g fill="#f85a40" fill-opacity="1"><g transform="translate(95.162867, 230.265568)"><g><path d="M 8.171875 0 L 8.171875 -2.34375 L 13.09375 -2.34375 C 18.539062 -2.34375 22.78125 -3.585938 25.8125 -6.078125 C 28.851562 -8.566406 30.375 -12.769531 30.375 -18.6875 L 30.375 -148.859375 C 30.375 -154.460938 28.851562 -158.472656 25.8125 -160.890625 C 22.78125 -163.304688 18.539062 -164.515625 13.09375 -164.515625 L 8.171875 -164.515625 L 8.171875 -166.859375 L 79.6875 -166.859375 L 79.6875 -164.515625 L 74.78125 -164.515625 C 69.175781 -164.515625 64.929688 -163.265625 62.046875 -160.765625 C 59.160156 -158.273438 57.71875 -154.070312 57.71875 -148.15625 L 57.71875 -18.6875 C 57.71875 -12.769531 59.160156 -8.566406 62.046875 -6.078125 C 64.929688 -3.585938 69.175781 -2.34375 74.78125 -2.34375 L 79.6875 -2.34375 L 79.6875 0 Z M 8.171875 0 "/></g></g></g><g clip-path="url(#6a5a606de4)"><path fill="#2a2a2a" d="M 9.230469 130.628906 L 268.878906 130.628906 L 268.878906 183.601562 L 9.230469 183.601562 Z M 9.230469 130.628906 " fill-opacity="1" fill-rule="nonzero"/></g><g fill="#f85a40" fill-opacity="1"><g transform="translate(9.445036, 176.87385)"><g><path d="M 52.558594 11.800781 L 52.742188 11.742188 C 53.050781 11.679688 53.234375 11.371094 53.113281 11.066406 C 49.300781 -0.554688 64.851562 -19.054688 79.300781 -31.414062 C 83.480469 -34.976562 83.664062 -36.328125 83.417969 -37.128906 C 83.234375 -37.742188 82.679688 -37.988281 82.371094 -37.988281 L 82.066406 -37.988281 C 72.90625 -33.933594 64.175781 -26.679688 57.414062 -19.976562 C 72.722656 -40.078125 71.492188 -41.554688 71 -42.167969 C 70.570312 -42.601562 69.957031 -42.539062 69.464844 -42.292969 C 62.027344 -37.988281 55.816406 -34.054688 50.652344 -30.429688 C 59.320312 -39.589844 60.859375 -46.351562 60.121094 -48.195312 C 60.058594 -48.378906 59.875 -48.625 59.503906 -48.808594 C 56.984375 -49.667969 43.769531 -46.105469 32.394531 -38.910156 C 18.933594 -30.488281 15.675781 -25.019531 15.367188 -21.882812 C 15.183594 -19.917969 16.105469 -18.996094 16.167969 -18.933594 C 16.414062 -18.6875 16.78125 -18.6875 16.964844 -18.933594 C 17.210938 -19.179688 17.210938 -19.546875 16.964844 -19.734375 C 16.964844 -19.734375 16.351562 -20.347656 16.472656 -21.761719 C 16.71875 -24.097656 19.242188 -29.320312 33.011719 -37.988281 C 44.691406 -45.304688 57.476562 -48.378906 59.074219 -47.703125 C 59.320312 -46.535156 58.582031 -39.894531 48.5 -29.875 L 44.75 -26.125 C 27.785156 -13.09375 25.449219 -5.285156 25.328125 -4.792969 C 25.265625 -4.550781 25.386719 -4.304688 25.632812 -4.179688 C 25.878906 -4.058594 26.125 -4.117188 26.308594 -4.304688 C 26.371094 -4.425781 31.65625 -11.1875 45.367188 -25.082031 C 51.453125 -29.8125 59.503906 -35.285156 70.015625 -41.246094 C 70.015625 -40.265625 67.988281 -35.039062 47.824219 -9.589844 C 45.613281 -6.886719 44.320312 -5.101562 44.261719 -5.039062 C 44.074219 -4.792969 44.136719 -4.488281 44.382812 -4.304688 C 44.628906 -4.058594 44.996094 -4.117188 45.183594 -4.363281 L 48.808594 -8.914062 C 54.894531 -16.289062 68.050781 -30.550781 82.3125 -36.820312 C 82.371094 -36.699219 82.496094 -35.652344 78.5625 -32.273438 C 63.132812 -19.054688 48.070312 -0.675781 52.066406 11.371094 C 52.128906 11.617188 52.3125 11.800781 52.558594 11.800781 Z M 29.9375 -10.390625 C 31.414062 -12.292969 33.503906 -14.691406 36.390625 -17.457031 Z M 29.9375 -10.390625 "/></g></g></g><g fill="#f85a40" fill-opacity="1"><g transform="translate(77.549087, 176.87385)"><g><path d="M 1.476562 -5.347656 C 3.503906 -5.347656 9.160156 -6.085938 16.414062 -8.484375 C 16.660156 -8.542969 16.84375 -8.851562 16.71875 -9.160156 C 16.660156 -9.464844 16.351562 -9.589844 16.042969 -9.527344 C 8.605469 -7.070312 2.765625 -6.394531 1.230469 -6.453125 C 0.308594 -6.515625 -0.554688 -6.824219 -0.675781 -7.191406 C -0.800781 -7.375 -0.613281 -7.683594 -0.429688 -7.867188 C 0 -8.421875 0.859375 -8.976562 1.84375 -9.40625 C 3.320312 -8.789062 5.960938 -8.851562 7.375 -9.589844 C 8.484375 -10.203125 8.542969 -10.820312 8.421875 -11.1875 C 8.175781 -12.046875 6.640625 -11.925781 6.148438 -11.863281 C 5.226562 -11.800781 3.382812 -11.3125 1.722656 -10.574219 L 1.597656 -10.511719 C 0.367188 -9.957031 -0.738281 -9.28125 -1.289062 -8.542969 C -1.96875 -7.746094 -1.84375 -7.128906 -1.722656 -6.761719 C -1.351562 -5.902344 -0.183594 -5.472656 1.476562 -5.347656 Z M 3.566406 -10.144531 C 4.671875 -10.511719 5.71875 -10.757812 6.269531 -10.820312 L 7.191406 -10.820312 L 6.824219 -10.574219 C 6.085938 -10.144531 4.734375 -10.019531 3.566406 -10.144531 Z M 3.566406 -10.144531 "/></g></g></g><g fill="#f85a40" fill-opacity="1"><g transform="translate(93.898978, 176.87385)"><g><path d="M -3.441406 -5.226562 C -3.320312 -5.226562 -3.257812 -5.226562 -3.136719 -5.285156 C 0.308594 -7.746094 6.332031 -11.371094 7.992188 -10.757812 C 8.054688 -10.574219 7.746094 -10.019531 6.886719 -9.160156 C 5.164062 -7.5625 4.363281 -6.699219 4.734375 -5.960938 C 5.039062 -5.285156 6.023438 -5.347656 6.453125 -5.410156 C 7.253906 -5.472656 12.726562 -6.578125 18.75 -8.484375 C 19.054688 -8.542969 19.179688 -8.851562 19.117188 -9.160156 C 18.996094 -9.464844 18.6875 -9.589844 18.441406 -9.527344 C 12.480469 -7.621094 7.128906 -6.578125 6.332031 -6.515625 L 5.839844 -6.453125 C 5.960938 -6.761719 6.453125 -7.253906 7.621094 -8.359375 C 8.359375 -9.097656 9.28125 -10.082031 9.097656 -10.941406 C 9.035156 -11.1875 8.914062 -11.558594 8.359375 -11.800781 C 6.824219 -12.355469 3.566406 -10.757812 0.800781 -9.160156 L 2.644531 -10.941406 C 2.890625 -11.1875 2.890625 -11.496094 2.644531 -11.742188 C 2.457031 -11.925781 2.089844 -11.925781 1.90625 -11.742188 L -3.8125 -6.148438 C -4.058594 -5.960938 -4.058594 -5.59375 -3.871094 -5.410156 C -3.75 -5.285156 -3.625 -5.226562 -3.441406 -5.226562 Z M -3.441406 -5.226562 "/></g></g></g><g fill="#f85a40" fill-opacity="1"><g transform="translate(112.584562, 176.87385)"><g><path d="M 23.050781 -26.554688 C 23.175781 -26.984375 22.929688 -27.292969 22.683594 -27.417969 C 22.375 -27.601562 21.515625 -28.03125 14.078125 -22.375 C 9.710938 -22.3125 7.375 -21.945312 7.070312 -21.269531 C 6.945312 -20.960938 7.070312 -20.65625 7.375 -20.53125 L 7.5625 -20.46875 C 7.746094 -20.46875 7.929688 -20.59375 8.054688 -20.714844 C 8.484375 -21.023438 10.203125 -21.144531 12.601562 -21.207031 C 8.730469 -18.132812 3.75 -13.894531 0.984375 -10.820312 C -1.722656 -7.746094 -2.273438 -6.886719 -1.90625 -6.023438 C -1.660156 -5.472656 -1.046875 -5.347656 -0.367188 -5.347656 L 0.308594 -5.410156 C 2.027344 -5.59375 7.253906 -7.007812 10.820312 -8.484375 C 11.066406 -8.605469 11.25 -8.914062 11.125 -9.222656 C 11.003906 -9.464844 10.757812 -9.652344 10.511719 -9.527344 C 7.070312 -8.113281 1.84375 -6.640625 0.183594 -6.515625 L -0.429688 -6.453125 C -0.800781 -6.453125 -0.921875 -6.515625 -0.921875 -6.515625 C -0.984375 -6.761719 -0.800781 -7.191406 1.78125 -10.082031 C 2.335938 -10.695312 2.949219 -11.3125 3.625 -11.988281 C 7.128906 -14.015625 12.847656 -17.886719 17.152344 -21.207031 L 22.3125 -21.023438 C 22.621094 -21.023438 22.867188 -21.269531 22.929688 -21.578125 C 22.929688 -21.882812 22.683594 -22.128906 22.375 -22.128906 L 18.566406 -22.3125 C 21.085938 -24.28125 22.867188 -25.878906 23.050781 -26.554688 Z M 16.90625 -22.3125 C 16.535156 -22.3125 16.230469 -22.375 15.921875 -22.375 C 18.132812 -23.972656 20.101562 -25.328125 21.269531 -25.941406 C 20.410156 -25.140625 18.808594 -23.851562 16.90625 -22.3125 Z M 8.054688 -16.042969 C 10.144531 -17.828125 12.417969 -19.609375 14.445312 -21.207031 L 15.429688 -21.207031 C 13.15625 -19.546875 10.574219 -17.703125 8.054688 -16.042969 Z M 8.054688 -16.042969 "/></g></g></g><g fill="#f85a40" fill-opacity="1"><g transform="translate(123.341065, 176.87385)"><g><path d="M 15 -9.160156 C 14.9375 -9.464844 14.628906 -9.589844 14.324219 -9.527344 C 10.082031 -8.054688 8.238281 -8.605469 7.5625 -9.035156 C 7.070312 -9.34375 7.007812 -9.710938 7.007812 -9.773438 L 7.007812 -9.898438 C 7.007812 -10.144531 6.945312 -10.449219 6.699219 -10.757812 C 5.839844 -11.742188 3.195312 -12.109375 -0.738281 -9.160156 C -2.644531 -7.746094 -3.382812 -6.824219 -3.136719 -6.023438 C -3.074219 -5.839844 -2.828125 -5.347656 -1.96875 -5.347656 C -0.246094 -5.347656 3.382812 -6.394531 6.453125 -8.605469 C 6.453125 -8.542969 6.515625 -8.542969 6.578125 -8.484375 C 7.128906 -7.929688 8.054688 -7.5 9.652344 -7.5 C 10.878906 -7.5 12.539062 -7.746094 14.691406 -8.484375 C 14.9375 -8.542969 15.121094 -8.914062 15 -9.160156 Z M 5.59375 -9.40625 C 2.828125 -7.4375 -0.429688 -6.394531 -1.90625 -6.394531 L -2.089844 -6.394531 C -1.96875 -6.640625 -1.597656 -7.191406 -0.121094 -8.296875 C 3.136719 -10.695312 5.347656 -10.632812 5.839844 -10.082031 C 6.085938 -9.835938 5.59375 -9.464844 5.59375 -9.40625 Z M 5.59375 -9.40625 "/></g></g></g><g fill="#f85a40" fill-opacity="1"><g transform="translate(137.96991, 176.87385)"><g><path d="M 1.046875 -5.347656 L 1.78125 -5.347656 C 5.347656 -5.347656 13.894531 -8.359375 14.261719 -8.484375 C 14.570312 -8.605469 14.691406 -8.914062 14.570312 -9.160156 C 14.507812 -9.464844 14.199219 -9.589844 13.894531 -9.527344 C 11.125 -8.542969 3.503906 -6.085938 1.230469 -6.453125 C 1.722656 -7.253906 4.792969 -9.28125 7.5625 -10.757812 C 7.808594 -10.941406 7.929688 -11.1875 7.808594 -11.433594 C 7.746094 -11.679688 7.5 -11.863281 7.191406 -11.800781 C 6.148438 -11.617188 5.039062 -11.558594 4.242188 -11.558594 C 4.058594 -12.355469 3.441406 -13.03125 3.011719 -13.277344 C 2.519531 -13.523438 2.214844 -13.339844 2.089844 -13.214844 C 1.597656 -12.847656 1.78125 -12.171875 1.90625 -11.679688 C 2.027344 -11.25 2.335938 -11.003906 2.703125 -10.820312 C 2.089844 -10.390625 0.859375 -9.957031 -0.308594 -9.527344 C -0.613281 -9.40625 -0.675781 -9.097656 -0.613281 -8.851562 C -0.492188 -8.542969 -0.183594 -8.359375 0.0625 -8.484375 C 1.597656 -9.035156 3.382812 -9.710938 3.996094 -10.511719 L 4.792969 -10.449219 C 2.214844 -8.914062 -0.121094 -7.253906 0.0625 -6.207031 C 0.121094 -5.960938 0.308594 -5.53125 1.046875 -5.347656 Z M 1.046875 -5.347656 "/></g></g></g><g fill="#f85a40" fill-opacity="1"><g transform="translate(152.168494, 176.87385)"><g><path d="M 75.179688 -44.566406 C 74.8125 -45.367188 73.828125 -45.613281 64.976562 -44.75 C 65.039062 -44.9375 64.976562 -45.183594 64.792969 -45.367188 C 64.546875 -45.613281 64.175781 -45.550781 63.992188 -45.304688 L 63.316406 -44.628906 C 60.242188 -44.320312 56.308594 -43.953125 51.328125 -43.398438 C 51.023438 -43.398438 50.777344 -43.09375 50.835938 -42.785156 C 50.898438 -42.476562 51.144531 -42.292969 51.390625 -42.292969 L 51.453125 -42.292969 L 62.148438 -43.398438 L 20.46875 0.121094 L 18.933594 0.429688 C 18.6875 0.121094 18.320312 -0.121094 17.949219 -0.246094 C 16.042969 -0.800781 13.769531 1.476562 13.523438 1.660156 C 13.277344 1.84375 13.277344 2.089844 13.402344 2.335938 C 13.460938 2.519531 13.648438 2.582031 13.894531 2.644531 L 14.015625 2.644531 C 15.121094 2.335938 16.660156 2.027344 18.441406 1.722656 C 18.441406 1.90625 18.566406 2.089844 18.625 2.335938 C 18.6875 2.582031 18.871094 2.703125 19.054688 2.765625 C 19.242188 2.828125 19.488281 2.765625 19.609375 2.644531 L 20.960938 1.167969 C 27.417969 0.0625 35.285156 -0.984375 37.128906 0.492188 C 37.3125 0.675781 37.375 0.859375 37.375 0.984375 C 37.375 1.289062 37.621094 1.597656 37.929688 1.597656 C 38.234375 1.597656 38.480469 1.351562 38.480469 1.046875 C 38.542969 0.429688 38.296875 0 37.804688 -0.367188 C 35.714844 -2.089844 28.398438 -1.289062 22.375 -0.246094 L 63.808594 -43.582031 C 68.910156 -44.015625 72.476562 -44.261719 73.765625 -44.136719 L 73.089844 -43.644531 C 72.78125 -43.460938 72.722656 -43.09375 72.84375 -42.847656 C 73.027344 -42.601562 73.398438 -42.539062 73.644531 -42.722656 C 74.6875 -43.398438 75.425781 -43.828125 75.179688 -44.566406 Z M 75.179688 -44.566406 "/></g></g></g><g clip-path="url(#833ded37f4)"><g fill="#f85a40" fill-opacity="1"><g transform="translate(198.329267, 176.87385)"><g><path d="M 18.933594 9.160156 C 19.054688 9.160156 19.179688 9.160156 19.300781 9.097656 C 23.113281 5.839844 37.621094 -8.359375 48.070312 -21.085938 L 53.417969 -26.003906 C 62.886719 -34.730469 67.867188 -39.34375 68.234375 -41.984375 C 79.914062 -42.660156 89.871094 -42.292969 91.902344 -39.648438 C 92.148438 -39.402344 92.515625 -39.402344 92.699219 -39.589844 C 92.945312 -39.773438 93.007812 -40.140625 92.824219 -40.386719 C 89.8125 -44.261719 73.152344 -43.769531 57.785156 -42.355469 C 57.230469 -42.722656 56.554688 -42.847656 55.695312 -42.90625 C 55.570312 -42.90625 39.957031 -43.335938 30.121094 -39.097656 C 29.875 -38.972656 29.753906 -38.664062 29.8125 -38.421875 C 29.875 -38.113281 30.183594 -37.988281 30.429688 -37.988281 C 36.699219 -38.910156 47.027344 -40.324219 57.476562 -41.246094 C 57.84375 -40.941406 57.90625 -40.632812 57.96875 -40.511719 C 59.011719 -37.558594 54.09375 -30.183594 47.394531 -21.945312 C 38.421875 -13.648438 27.722656 -3.320312 18.503906 8.296875 C 18.378906 8.542969 18.378906 8.851562 18.625 9.035156 C 18.625 9.160156 18.808594 9.160156 18.933594 9.160156 Z M 52.4375 -26.617188 C 57.046875 -32.886719 59.996094 -38.234375 59.074219 -40.941406 L 58.890625 -41.371094 C 61.59375 -41.617188 64.363281 -41.800781 67.066406 -41.925781 C 66.453125 -39.464844 60.058594 -33.5625 52.679688 -26.863281 Z M 37.3125 -40.078125 C 41.925781 -41.125 46.78125 -41.554688 50.34375 -41.679688 C 45.367188 -41.1875 40.816406 -40.570312 37.3125 -40.078125 Z M 25.386719 1.84375 C 30.183594 -3.566406 35.160156 -8.730469 39.957031 -13.339844 C 34.917969 -7.746094 29.628906 -2.398438 25.386719 1.84375 Z M 25.386719 1.84375 "/></g></g></g></g></svg>